<?xml version="1.0" standalone="no"?>
<!DOCTYPE svg PUBLIC "-//W3C//DTD SVG 20010904//EN"
 "http://www.w3.org/TR/2001/REC-SVG-20010904/DTD/svg10.dtd">
<svg version="1.0" xmlns="http://www.w3.org/2000/svg"
 width="180.000000pt" height="180.000000pt" viewBox="0 0 180.000000 180.000000"
 preserveAspectRatio="xMidYMid meet">
<metadata>
Created by potrace 1.14, written by Peter Selinger 2001-2017
</metadata>
<g transform="translate(0.000000,180.000000) scale(0.100000,-0.100000)"
fill="#000000" stroke="none">
<path d="M105 1781 c-48 -22 -69 -44 -90 -94 -13 -32 -15 -134 -15 -789 0
-709 2 -755 19 -793 22 -48 44 -69 94 -90 32 -13 134 -15 789 -15 709 0 755 2
793 19 48 22 69 44 90 94 13 32 15 134 15 787 0 653 -2 755 -15 787 -21 50
-42 72 -90 94 -38 18 -84 19 -795 19 -711 0 -757 -1 -795 -19z m274 -548 c6
-16 51 -147 100 -293 49 -146 94 -276 99 -290 l10 -25 9 25 c6 14 54 157 109
317 l99 293 38 0 c20 0 37 -4 37 -8 0 -5 -12 -42 -26 -83 -40 -113 -214 -623
-214 -626 0 -2 -24 -3 -52 -3 l-53 0 -119 348 c-65 191 -121 353 -124 360 -3
8 8 12 36 12 34 0 41 -4 51 -27z m904 -20 c8 -27 63 -187 121 -357 58 -170
106 -311 106 -313 0 -2 -17 -3 -39 -3 l-39 0 -35 97 -35 98 -147 0 -147 0 -20
-55 c-55 -153 -47 -140 -89 -140 -22 0 -39 1 -39 3 0 1 39 115 86 252 47 138
102 298 122 358 l37 107 51 0 51 0 16 -47z"/>
<path d="M1155 1008 c-32 -95 -60 -179 -63 -185 -3 -10 24 -13 115 -13 66 0
122 3 125 6 6 5 -106 351 -116 361 -2 2 -30 -74 -61 -169z"/>
</g>
</svg>
