<?xml version="1.0" standalone="no"?>
<!DOCTYPE svg PUBLIC "-//W3C//DTD SVG 20010904//EN"
 "http://www.w3.org/TR/2001/REC-SVG-20010904/DTD/svg10.dtd">
<svg version="1.0" xmlns="http://www.w3.org/2000/svg"
 width="30.000000pt" height="30.000000pt" viewBox="0 0 294.000000 283.000000"
 preserveAspectRatio="xMidYMid meet">

<g transform="translate(0.000000,283.000000) scale(0.100000,-0.100000)"
fill="yellow" stroke="none">
<path d="M0 1415 l0 -1415 1470 0 1470 0 0 1415 0 1415 -1470 0 -1470 0 0
-1415z m1695 979 c338 -579 365 -625 380 -678 37 -123 7 -207 -187 -524 -21
-34 -38 -66 -38 -71 0 -17 123 -142 137 -139 8 2 206 337 441 745 235 408 431
745 435 749 4 4 7 -443 7 -994 l0 -1002 -1400 0 -1400 0 0 1002 c0 599 4 998
9 992 5 -5 201 -343 436 -751 235 -409 433 -743 440 -743 14 0 135 125 135
139 0 5 -34 67 -76 137 -42 71 -95 167 -118 214 -37 76 -41 93 -41 160 0 96
13 124 217 466 85 142 208 352 273 466 66 114 122 208 125 208 3 0 104 -169
225 -376z m1175 -2219 l0 -95 -1400 0 -1400 0 0 95 0 95 1400 0 1400 0 0 -95z"/>
<path d="M1266 2029 c-237 -406 -233 -392 -164 -521 25 -46 62 -110 83 -142
34 -54 39 -58 51 -41 28 38 77 197 110 359 33 161 77 297 110 341 15 20 15 20
30 1 32 -44 75 -182 109 -350 33 -166 77 -308 108 -351 13 -16 19 -10 72 76
133 214 133 228 16 427 -44 75 -134 228 -198 339 -65 112 -120 203 -123 203
-3 -1 -95 -154 -204 -341z"/>
<path d="M260 1211 c0 -286 4 -522 9 -525 12 -8 168 21 249 45 85 25 262 109
262 123 0 17 -497 870 -509 874 -8 3 -11 -144 -11 -517z"/>
<path d="M2411 1297 c-138 -239 -251 -438 -251 -444 0 -11 173 -95 246 -117
70 -23 254 -57 265 -50 12 7 12 1044 0 1044 -4 0 -121 -195 -260 -433z"/>
<path d="M1433 1283 c-17 -38 -46 -93 -63 -123 l-32 -55 64 -107 c34 -60 65
-108 68 -108 3 0 34 48 68 107 l63 107 -63 123 c-35 67 -66 123 -69 123 -3 0
-19 -30 -36 -67z"/>
<path d="M1126 865 c-61 -58 -135 -118 -206 -167 -24 -16 -15 -17 203 -17
l229 -1 -25 43 c-13 23 -46 79 -72 125 -26 45 -50 82 -54 82 -3 -1 -37 -30
-75 -65z"/>
<path d="M1680 838 c-29 -51 -62 -108 -73 -125 l-19 -33 229 1 c218 0 227 1
203 17 -65 45 -130 97 -201 161 -43 39 -79 71 -81 71 -2 0 -28 -42 -58 -92z"/>
</g>
</svg>
